{
	"asset":{
		"generator":"Khronos glTF Blender I/O v4.0.44",
		"version":"2.0"
	},
	"extensionsUsed":[
		"KHR_materials_specular",
		"KHR_materials_ior"
	],
	"scene":0,
	"scenes":[
		{
			"name":"Scene",
			"nodes":[
				1,
				2
			]
		}
	],
	"nodes":[
		{
			"mesh":0,
			"name":"Lithium battery.Samsung INR18650-30Q",
			"scale":[
				1.687259554862976,
				1.687259554862976,
				1.687259554862976
			],
			"translation":[
				0,
				0.009000166319310665,
				0
			]
		},
		{
			"children":[
				0
			],
			"name":"Lithium battery Samsung INR18650-30Q",
			"scale":[
				9.647041320800781,
				9.647041320800781,
				9.647041320800781
			],
			"translation":[
				-0.10242104530334473,
				0,
				-0.12774799764156342
			]
		},
		{
			"name":"Lithium battery Samsung INR18650-30Q.001",
			"scale":[
				9.647041320800781,
				9.647041320800781,
				9.647041320800781
			],
			"translation":[
				0.12611031532287598,
				0,
				0.15729521214962006
			]
		}
	],
	"materials":[
		{
			"doubleSided":true,
			"extensions":{
				"KHR_materials_specular":{
					"specularFactor":0.7757575511932373
				},
				"KHR_materials_ior":{
					"ior":1.4500000476837158
				}
			},
			"name":"Material.001",
			"pbrMetallicRoughness":{
				"baseColorTexture":{
					"index":0
				},
				"metallicFactor":0,
				"roughnessFactor":0.09166665375232697
			}
		},
		{
			"doubleSided":true,
			"name":"Material.002",
			"pbrMetallicRoughness":{
				"baseColorFactor":[
					0.4501969814300537,
					0.4501969814300537,
					0.4501969814300537,
					1
				],
				"metallicFactor":0,
				"roughnessFactor":0.1818181872367859
			}
		},
		{
			"doubleSided":true,
			"name":"Material.003",
			"pbrMetallicRoughness":{
				"baseColorFactor":[
					0.5910000205039978,
					0.5910000205039978,
					0.5910000205039978,
					1
				],
				"roughnessFactor":0.10000000149011612
			}
		}
	],
	"meshes":[
		{
			"name":"Cylinder",
			"primitives":[
				{
					"attributes":{
						"POSITION":0,
						"NORMAL":1,
						"TEXCOORD_0":2
					},
					"indices":3,
					"material":0
				},
				{
					"attributes":{
						"POSITION":4,
						"NORMAL":5,
						"TEXCOORD_0":6
					},
					"indices":7,
					"material":1
				},
				{
					"attributes":{
						"POSITION":8,
						"NORMAL":9,
						"TEXCOORD_0":10
					},
					"indices":11,
					"material":2
				}
			]
		}
	],
	"textures":[
		{
			"sampler":0,
			"source":0
		}
	],
	"images":[
		{
			"mimeType":"image/jpeg",
			"name":"INR18650-30Q",
			"uri":"INR18650-30Q.jpg"
		}
	],
	"accessors":[
		{
			"bufferView":0,
			"componentType":5126,
			"count":983,
			"max":[
				0.009000004269182682,
				0.009000002406537533,
				0.032499998807907104
			],
			"min":[
				-0.009000004269182682,
				-0.009000002406537533,
				-0.032499998807907104
			],
			"type":"VEC3"
		},
		{
			"bufferView":1,
			"componentType":5126,
			"count":983,
			"type":"VEC3"
		},
		{
			"bufferView":2,
			"componentType":5126,
			"count":983,
			"type":"VEC2"
		},
		{
			"bufferView":3,
			"componentType":5123,
			"count":3264,
			"type":"SCALAR"
		},
		{
			"bufferView":4,
			"componentType":5126,
			"count":128,
			"max":[
				0.007790521252900362,
				0.007790519390255213,
				0.032067976891994476
			],
			"min":[
				-0.007790511939674616,
				-0.007790513802319765,
				0.031549036502838135
			],
			"type":"VEC3"
		},
		{
			"bufferView":5,
			"componentType":5126,
			"count":128,
			"type":"VEC3"
		},
		{
			"bufferView":6,
			"componentType":5126,
			"count":128,
			"type":"VEC2"
		},
		{
			"bufferView":7,
			"componentType":5123,
			"count":384,
			"type":"SCALAR"
		},
		{
			"bufferView":8,
			"componentType":5126,
			"count":352,
			"max":[
				0.007457835134118795,
				0.007457836996763945,
				0.03264483064413071
			],
			"min":[
				-0.0074578444473445415,
				-0.007457842584699392,
				-0.032309189438819885
			],
			"type":"VEC3"
		},
		{
			"bufferView":9,
			"componentType":5126,
			"count":352,
			"type":"VEC3"
		},
		{
			"bufferView":10,
			"componentType":5126,
			"count":352,
			"type":"VEC2"
		},
		{
			"bufferView":11,
			"componentType":5123,
			"count":948,
			"type":"SCALAR"
		}
	],
	"bufferViews":[
		{
			"buffer":0,
			"byteLength":11796,
			"byteOffset":0,
			"target":34962
		},
		{
			"buffer":0,
			"byteLength":11796,
			"byteOffset":11796,
			"target":34962
		},
		{
			"buffer":0,
			"byteLength":7864,
			"byteOffset":23592,
			"target":34962
		},
		{
			"buffer":0,
			"byteLength":6528,
			"byteOffset":31456,
			"target":34963
		},
		{
			"buffer":0,
			"byteLength":1536,
			"byteOffset":37984,
			"target":34962
		},
		{
			"buffer":0,
			"byteLength":1536,
			"byteOffset":39520,
			"target":34962
		},
		{
			"buffer":0,
			"byteLength":1024,
			"byteOffset":41056,
			"target":34962
		},
		{
			"buffer":0,
			"byteLength":768,
			"byteOffset":42080,
			"target":34963
		},
		{
			"buffer":0,
			"byteLength":4224,
			"byteOffset":42848,
			"target":34962
		},
		{
			"buffer":0,
			"byteLength":4224,
			"byteOffset":47072,
			"target":34962
		},
		{
			"buffer":0,
			"byteLength":2816,
			"byteOffset":51296,
			"target":34962
		},
		{
			"buffer":0,
			"byteLength":1896,
			"byteOffset":54112,
			"target":34963
		}
	],
	"samplers":[
		{
			"magFilter":9729,
			"minFilter":9987
		}
	],
	"buffers":[
		{
			"byteLength":56008,
			"uri":"battery_final.bin"
		}
	]
}
