{
	"asset":{
		"generator":"Khronos glTF Blender I/O v4.0.44",
		"version":"2.0"
	},
	"extensionsUsed":[
		"KHR_materials_emissive_strength"
	],
	"scene":0,
	"scenes":[
		{
			"name":"Scene",
			"nodes":[
				1
			]
		}
	],
	"nodes":[
		{
			"mesh":0,
			"name":"Monitor",
			"scale":[
				2.6133787631988525,
				2.6133787631988525,
				2.6133787631988525
			]
		},
		{
			"children":[
				0
			],
			"name":"Computer Monitor",
			"translation":[
				0.28074169158935547,
				0,
				0.07470273971557617
			]
		}
	],
	"materials":[
		{
			"doubleSided":true,
			"name":"monitor_plastic.001",
			"pbrMetallicRoughness":{
				"baseColorFactor":[
					0.003095408668741584,
					0.003095408668741584,
					0.003095408668741584,
					1
				],
				"metallicFactor":0,
				"roughnessFactor":0.5
			}
		},
		{
			"doubleSided":true,
			"name":"monitor_metal white.001",
			"normalTexture":{
				"index":0
			},
			"pbrMetallicRoughness":{
				"metallicFactor":0.800000011920929,
				"roughnessFactor":0.5
			}
		},
		{
			"doubleSided":true,
			"name":"monitor_body texture.001",
			"normalTexture":{
				"index":1,
				"scale":0.10000000149011612
			},
			"pbrMetallicRoughness":{
				"baseColorFactor":[
					0,
					0,
					0,
					1
				],
				"metallicFactor":0,
				"roughnessFactor":0.5
			}
		},
		{
			"doubleSided":true,
			"emissiveFactor":[
				1,
				1,
				1
			],
			"emissiveTexture":{
				"index":2
			},
			"extensions":{
				"KHR_materials_emissive_strength":{
					"emissiveStrength":2
				}
			},
			"name":"monitor_screen.001",
			"pbrMetallicRoughness":{
				"baseColorFactor":[
					0,
					0,
					0,
					1
				]
			}
		},
		{
			"doubleSided":true,
			"name":"monitor_metal 01.001",
			"normalTexture":{
				"index":3,
				"scale":0.30000001192092896
			},
			"pbrMetallicRoughness":{
				"baseColorTexture":{
					"index":4
				},
				"metallicFactor":0.831818163394928,
				"roughnessFactor":0.5
			}
		},
		{
			"doubleSided":true,
			"name":"monitor_buttons.001",
			"pbrMetallicRoughness":{
				"baseColorFactor":[
					0.08250945806503296,
					0.08250945806503296,
					0.08250945806503296,
					1
				],
				"metallicFactor":0.699999988079071,
				"roughnessFactor":0.5
			}
		},
		{
			"doubleSided":true,
			"emissiveFactor":[
				0.08017536997795105,
				1,
				0.04311028867959976
			],
			"extensions":{
				"KHR_materials_emissive_strength":{
					"emissiveStrength":3
				}
			},
			"name":"monitor_led.001",
			"pbrMetallicRoughness":{
				"baseColorFactor":[
					0,
					0,
					0,
					1
				]
			}
		}
	],
	"meshes":[
		{
			"name":"Circle.001",
			"primitives":[
				{
					"attributes":{
						"POSITION":0,
						"NORMAL":1,
						"TEXCOORD_0":2
					},
					"indices":3,
					"material":0
				},
				{
					"attributes":{
						"POSITION":4,
						"NORMAL":5,
						"TEXCOORD_0":6
					},
					"indices":7,
					"material":1
				},
				{
					"attributes":{
						"POSITION":8,
						"NORMAL":9,
						"TEXCOORD_0":10
					},
					"indices":11,
					"material":2
				},
				{
					"attributes":{
						"POSITION":12,
						"NORMAL":13,
						"TEXCOORD_0":14
					},
					"indices":15,
					"material":3
				},
				{
					"attributes":{
						"POSITION":16,
						"NORMAL":17,
						"TEXCOORD_0":18
					},
					"indices":19,
					"material":4
				},
				{
					"attributes":{
						"POSITION":20,
						"NORMAL":21,
						"TEXCOORD_0":22
					},
					"indices":23,
					"material":5
				},
				{
					"attributes":{
						"POSITION":24,
						"NORMAL":25,
						"TEXCOORD_0":26
					},
					"indices":27,
					"material":6
				}
			]
		}
	],
	"textures":[
		{
			"sampler":0,
			"source":0
		},
		{
			"sampler":0,
			"source":1
		},
		{
			"sampler":0,
			"source":2
		},
		{
			"sampler":0,
			"source":0
		},
		{
			"sampler":0,
			"source":3
		}
	],
	"images":[
		{
			"mimeType":"image/jpeg",
			"name":"Metal010_2K_Normal",
			"uri":"Metal010_2K_Normal.jpg"
		},
		{
			"mimeType":"image/jpeg",
			"name":"Plastic005_2K_Normal",
			"uri":"Plastic005_2K_Normal.jpg"
		},
		{
			"mimeType":"image/jpeg",
			"name":"zMWd7l",
			"uri":"zMWd7l.jpg"
		},
		{
			"mimeType":"image/jpeg",
			"name":"Metal010_2K_Color",
			"uri":"Metal010_2K_Color.jpg"
		}
	],
	"accessors":[
		{
			"bufferView":0,
			"componentType":5126,
			"count":7403,
			"max":[
				0.1479206085205078,
				0.025130510330200195,
				0.09807421267032623
			],
			"min":[
				-0.14792059361934662,
				0.001104504568502307,
				-0.09625347703695297
			],
			"type":"VEC3"
		},
		{
			"bufferView":1,
			"componentType":5126,
			"count":7403,
			"type":"VEC3"
		},
		{
			"bufferView":2,
			"componentType":5126,
			"count":7403,
			"type":"VEC2"
		},
		{
			"bufferView":3,
			"componentType":5123,
			"count":11136,
			"type":"SCALAR"
		},
		{
			"bufferView":4,
			"componentType":5126,
			"count":5096,
			"max":[
				0.14171820878982544,
				0.025045422837138176,
				0.09136629849672318
			],
			"min":[
				-0.14171820878982544,
				0.012311520986258984,
				-0.09481286257505417
			],
			"type":"VEC3"
		},
		{
			"bufferView":5,
			"componentType":5126,
			"count":5096,
			"type":"VEC3"
		},
		{
			"bufferView":6,
			"componentType":5126,
			"count":5096,
			"type":"VEC2"
		},
		{
			"bufferView":7,
			"componentType":5123,
			"count":7680,
			"type":"SCALAR"
		},
		{
			"bufferView":8,
			"componentType":5126,
			"count":869,
			"max":[
				0.320000022649765,
				0.4571593105792999,
				0.05337327718734741
			],
			"min":[
				-0.320000022649765,
				0.07665348052978516,
				-0.01488483790308237
			],
			"type":"VEC3"
		},
		{
			"bufferView":9,
			"componentType":5126,
			"count":869,
			"type":"VEC3"
		},
		{
			"bufferView":10,
			"componentType":5126,
			"count":869,
			"type":"VEC2"
		},
		{
			"bufferView":11,
			"componentType":5123,
			"count":2622,
			"type":"SCALAR"
		},
		{
			"bufferView":12,
			"componentType":5126,
			"count":10,
			"max":[
				0.30000001192092896,
				0.4370245933532715,
				0.04675132408738136
			],
			"min":[
				-0.30000001192092896,
				0.09729907661676407,
				0.03309032693505287
			],
			"type":"VEC3"
		},
		{
			"bufferView":13,
			"componentType":5126,
			"count":10,
			"type":"VEC3"
		},
		{
			"bufferView":14,
			"componentType":5126,
			"count":10,
			"type":"VEC2"
		},
		{
			"bufferView":15,
			"componentType":5123,
			"count":30,
			"type":"SCALAR"
		},
		{
			"bufferView":16,
			"componentType":5126,
			"count":6561,
			"max":[
				0.11942941695451736,
				0.4315643608570099,
				-0.003236145945265889
			],
			"min":[
				-0.11942941695451736,
				0.0027116923592984676,
				-0.07114683091640472
			],
			"type":"VEC3"
		},
		{
			"bufferView":17,
			"componentType":5126,
			"count":6561,
			"type":"VEC3"
		},
		{
			"bufferView":18,
			"componentType":5126,
			"count":6561,
			"type":"VEC2"
		},
		{
			"bufferView":19,
			"componentType":5123,
			"count":10812,
			"type":"SCALAR"
		},
		{
			"bufferView":20,
			"componentType":5126,
			"count":3300,
			"max":[
				0.314581036567688,
				0.12252900004386902,
				0.05406416207551956
			],
			"min":[
				0.30495214462280273,
				0.08415427058935165,
				0.05214153230190277
			],
			"type":"VEC3"
		},
		{
			"bufferView":21,
			"componentType":5126,
			"count":3300,
			"type":"VEC3"
		},
		{
			"bufferView":22,
			"componentType":5126,
			"count":3300,
			"type":"VEC2"
		},
		{
			"bufferView":23,
			"componentType":5123,
			"count":5340,
			"type":"SCALAR"
		},
		{
			"bufferView":24,
			"componentType":5126,
			"count":377,
			"max":[
				0.3034708499908447,
				0.08909787982702255,
				0.053463295102119446
			],
			"min":[
				0.30197224020957947,
				0.08759923279285431,
				0.05258827656507492
			],
			"type":"VEC3"
		},
		{
			"bufferView":25,
			"componentType":5126,
			"count":377,
			"type":"VEC3"
		},
		{
			"bufferView":26,
			"componentType":5126,
			"count":377,
			"type":"VEC2"
		},
		{
			"bufferView":27,
			"componentType":5123,
			"count":576,
			"type":"SCALAR"
		}
	],
	"bufferViews":[
		{
			"buffer":0,
			"byteLength":88836,
			"byteOffset":0,
			"target":34962
		},
		{
			"buffer":0,
			"byteLength":88836,
			"byteOffset":88836,
			"target":34962
		},
		{
			"buffer":0,
			"byteLength":59224,
			"byteOffset":177672,
			"target":34962
		},
		{
			"buffer":0,
			"byteLength":22272,
			"byteOffset":236896,
			"target":34963
		},
		{
			"buffer":0,
			"byteLength":61152,
			"byteOffset":259168,
			"target":34962
		},
		{
			"buffer":0,
			"byteLength":61152,
			"byteOffset":320320,
			"target":34962
		},
		{
			"buffer":0,
			"byteLength":40768,
			"byteOffset":381472,
			"target":34962
		},
		{
			"buffer":0,
			"byteLength":15360,
			"byteOffset":422240,
			"target":34963
		},
		{
			"buffer":0,
			"byteLength":10428,
			"byteOffset":437600,
			"target":34962
		},
		{
			"buffer":0,
			"byteLength":10428,
			"byteOffset":448028,
			"target":34962
		},
		{
			"buffer":0,
			"byteLength":6952,
			"byteOffset":458456,
			"target":34962
		},
		{
			"buffer":0,
			"byteLength":5244,
			"byteOffset":465408,
			"target":34963
		},
		{
			"buffer":0,
			"byteLength":120,
			"byteOffset":470652,
			"target":34962
		},
		{
			"buffer":0,
			"byteLength":120,
			"byteOffset":470772,
			"target":34962
		},
		{
			"buffer":0,
			"byteLength":80,
			"byteOffset":470892,
			"target":34962
		},
		{
			"buffer":0,
			"byteLength":60,
			"byteOffset":470972,
			"target":34963
		},
		{
			"buffer":0,
			"byteLength":78732,
			"byteOffset":471032,
			"target":34962
		},
		{
			"buffer":0,
			"byteLength":78732,
			"byteOffset":549764,
			"target":34962
		},
		{
			"buffer":0,
			"byteLength":52488,
			"byteOffset":628496,
			"target":34962
		},
		{
			"buffer":0,
			"byteLength":21624,
			"byteOffset":680984,
			"target":34963
		},
		{
			"buffer":0,
			"byteLength":39600,
			"byteOffset":702608,
			"target":34962
		},
		{
			"buffer":0,
			"byteLength":39600,
			"byteOffset":742208,
			"target":34962
		},
		{
			"buffer":0,
			"byteLength":26400,
			"byteOffset":781808,
			"target":34962
		},
		{
			"buffer":0,
			"byteLength":10680,
			"byteOffset":808208,
			"target":34963
		},
		{
			"buffer":0,
			"byteLength":4524,
			"byteOffset":818888,
			"target":34962
		},
		{
			"buffer":0,
			"byteLength":4524,
			"byteOffset":823412,
			"target":34962
		},
		{
			"buffer":0,
			"byteLength":3016,
			"byteOffset":827936,
			"target":34962
		},
		{
			"buffer":0,
			"byteLength":1152,
			"byteOffset":830952,
			"target":34963
		}
	],
	"samplers":[
		{
			"magFilter":9729,
			"minFilter":9987
		}
	],
	"buffers":[
		{
			"byteLength":832104,
			"uri":"realmoniitor.bin"
		}
	]
}
