{
	"asset":{
		"generator":"Khronos glTF Blender I/O v4.0.44",
		"version":"2.0"
	},
	"extensionsUsed":[
		"KHR_materials_specular",
		"KHR_materials_ior",
		"KHR_materials_clearcoat"
	],
	"scene":0,
	"scenes":[
		{
			"name":"Scene",
			"nodes":[
				3
			]
		}
	],
	"nodes":[
		{
			"mesh":0,
			"name":"Bolt",
			"translation":[
				0,
				0.3424111008644104,
				0
			]
		},
		{
			"mesh":1,
			"name":"Rim speedline corse SL8 Dominatore",
			"translation":[
				0,
				0.3424111008644104,
				0
			]
		},
		{
			"mesh":2,
			"name":"Tire Yokohama ADVAN Neova AD08RS",
			"translation":[
				0,
				0.3424111008644104,
				0
			]
		},
		{
			"children":[
				0,
				1,
				2
			],
			"name":"Car tires, Speedline corse / Yokohama ADVAN",
			"scale":[
				2.405379295349121,
				2.405379295349121,
				2.405379295349121
			]
		}
	],
	"materials":[
		{
			"doubleSided":true,
			"extensions":{
				"KHR_materials_specular":{
					"specularColorFactor":[
						1.0363636016845703,
						1.0363636016845703,
						1.0363636016845703
					]
				},
				"KHR_materials_ior":{
					"ior":1.4500000476837158
				}
			},
			"name":"Logo1.001",
			"normalTexture":{
				"index":0,
				"scale":0.10000000894069672
			},
			"pbrMetallicRoughness":{
				"baseColorTexture":{
					"index":1
				},
				"metallicRoughnessTexture":{
					"index":2
				}
			}
		},
		{
			"doubleSided":true,
			"extensions":{
				"KHR_materials_specular":{
					"specularFactor":0.9212121367454529
				},
				"KHR_materials_ior":{
					"ior":1.4500000476837158
				}
			},
			"name":"Metal-Black.001",
			"normalTexture":{
				"index":3,
				"scale":0.07500000298023224
			},
			"pbrMetallicRoughness":{
				"baseColorTexture":{
					"index":4
				},
				"roughnessFactor":0.3424239158630371
			}
		},
		{
			"doubleSided":true,
			"extensions":{
				"KHR_materials_specular":{
					"specularColorFactor":[
						1.0363636016845703,
						1.0363636016845703,
						1.0363636016845703
					]
				},
				"KHR_materials_ior":{
					"ior":1.4500000476837158
				}
			},
			"name":"Logo.rim center.001",
			"normalTexture":{
				"index":5,
				"scale":0.02500000037252903
			},
			"pbrMetallicRoughness":{
				"baseColorTexture":{
					"index":6
				},
				"metallicRoughnessTexture":{
					"index":7
				}
			}
		},
		{
			"doubleSided":true,
			"name":"Cromium.001",
			"pbrMetallicRoughness":{
				"baseColorFactor":[
					0.04502704739570618,
					0.044428057968616486,
					0.04803111404180527,
					1
				],
				"roughnessFactor":0.13215434551239014
			}
		},
		{
			"doubleSided":true,
			"name":"Messing.001",
			"pbrMetallicRoughness":{
				"baseColorFactor":[
					0.9559999704360962,
					0.7910000085830688,
					0.3050000071525574,
					1
				],
				"roughnessFactor":0.10000000149011612
			}
		},
		{
			"doubleSided":true,
			"extensions":{
				"KHR_materials_clearcoat":{
					"clearcoatFactor":0.05454545468091965,
					"clearcoatRoughnessFactor":0.3824290633201599
				},
				"KHR_materials_specular":{
					"specularFactor":0.3856661319732666
				},
				"KHR_materials_ior":{
					"ior":1.6500000953674316
				}
			},
			"name":"Car rubber wheel.001",
			"pbrMetallicRoughness":{
				"baseColorFactor":[
					0,
					0,
					0,
					1
				],
				"metallicFactor":0,
				"roughnessFactor":0.6978355050086975
			}
		},
		{
			"doubleSided":true,
			"extensions":{
				"KHR_materials_clearcoat":{
					"clearcoatFactor":0.05454545468091965,
					"clearcoatRoughnessFactor":0.3824290633201599
				},
				"KHR_materials_specular":{
					"specularFactor":0.7674843072891235
				},
				"KHR_materials_ior":{
					"ior":1.6500000953674316
				}
			},
			"name":"Car rubber Glanzwheel.002",
			"pbrMetallicRoughness":{
				"baseColorFactor":[
					0,
					0,
					0,
					1
				],
				"metallicFactor":0,
				"roughnessFactor":0.5432900786399841
			}
		},
		{
			"doubleSided":true,
			"name":"rot",
			"pbrMetallicRoughness":{
				"baseColorFactor":[
					0.47353148460388184,
					0.022173885256052017,
					0.03189603611826897,
					1
				],
				"metallicFactor":0,
				"roughnessFactor":0.1342443823814392
			}
		},
		{
			"doubleSided":true,
			"name":"Weis",
			"pbrMetallicRoughness":{
				"baseColorFactor":[
					0.5104802846908569,
					0.5104802846908569,
					0.5104802846908569,
					1
				],
				"metallicFactor":0,
				"roughnessFactor":0.1342443823814392
			}
		}
	],
	"meshes":[
		{
			"name":"Bolt",
			"primitives":[
				{
					"attributes":{
						"POSITION":0,
						"NORMAL":1,
						"TEXCOORD_0":2
					},
					"indices":3,
					"material":0
				}
			]
		},
		{
			"name":"Felge.003",
			"primitives":[
				{
					"attributes":{
						"POSITION":4,
						"NORMAL":5,
						"TEXCOORD_0":6
					},
					"indices":7,
					"material":1
				},
				{
					"attributes":{
						"POSITION":8,
						"NORMAL":9,
						"TEXCOORD_0":10
					},
					"indices":11,
					"material":0
				},
				{
					"attributes":{
						"POSITION":12,
						"NORMAL":13,
						"TEXCOORD_0":14
					},
					"indices":15,
					"material":2
				},
				{
					"attributes":{
						"POSITION":16,
						"NORMAL":17,
						"TEXCOORD_0":18
					},
					"indices":19,
					"material":3
				},
				{
					"attributes":{
						"POSITION":20,
						"NORMAL":21,
						"TEXCOORD_0":22
					},
					"indices":23,
					"material":4
				}
			]
		},
		{
			"name":"Reifen.002",
			"primitives":[
				{
					"attributes":{
						"POSITION":24,
						"NORMAL":25,
						"TEXCOORD_0":26
					},
					"indices":27,
					"material":5
				},
				{
					"attributes":{
						"POSITION":28,
						"NORMAL":29,
						"TEXCOORD_0":30
					},
					"indices":31,
					"material":6
				},
				{
					"attributes":{
						"POSITION":32,
						"NORMAL":33,
						"TEXCOORD_0":34
					},
					"indices":35,
					"material":7
				},
				{
					"attributes":{
						"POSITION":36,
						"NORMAL":37,
						"TEXCOORD_0":38
					},
					"indices":39,
					"material":8
				}
			]
		}
	],
	"textures":[
		{
			"sampler":0,
			"source":0
		},
		{
			"sampler":0,
			"source":1
		},
		{
			"sampler":0,
			"source":2
		},
		{
			"sampler":0,
			"source":0
		},
		{
			"sampler":0,
			"source":3
		},
		{
			"sampler":0,
			"source":0
		},
		{
			"sampler":0,
			"source":4
		},
		{
			"sampler":0,
			"source":5
		}
	],
	"images":[
		{
			"mimeType":"image/jpeg",
			"name":"Steel_brushed_Normal",
			"uri":"Steel_brushed_Normal.jpg"
		},
		{
			"mimeType":"image/jpeg",
			"name":"Steel_brushed_Logo1",
			"uri":"Steel_brushed_Logo1.jpg"
		},
		{
			"mimeType":"image/png",
			"name":"Steel_brushed_Logo1",
			"uri":"Steel_brushed_Logo1.png"
		},
		{
			"mimeType":"image/jpeg",
			"name":"Steel_brushed",
			"uri":"Steel_brushed.jpg"
		},
		{
			"mimeType":"image/jpeg",
			"name":"sPEEDLINE-CORCE-LOGO2-",
			"uri":"sPEEDLINE-CORCE-LOGO2-.jpg"
		},
		{
			"mimeType":"image/png",
			"name":"Steel_brushed",
			"uri":"Steel_brushed.png"
		}
	],
	"accessors":[
		{
			"bufferView":0,
			"componentType":5126,
			"count":37998,
			"max":[
				0.06969700753688812,
				0.05954298377037048,
				0.057022858411073685
			],
			"min":[
				0.02934752032160759,
				-0.049711667001247406,
				-0.05702285096049309
			],
			"type":"VEC3"
		},
		{
			"bufferView":1,
			"componentType":5126,
			"count":37998,
			"type":"VEC3"
		},
		{
			"bufferView":2,
			"componentType":5126,
			"count":37998,
			"type":"VEC2"
		},
		{
			"bufferView":3,
			"componentType":5123,
			"count":110400,
			"type":"SCALAR"
		},
		{
			"bufferView":4,
			"componentType":5126,
			"count":44391,
			"max":[
				0.13481350243091583,
				0.27506816387176514,
				0.27506816387176514
			],
			"min":[
				-0.13262496888637543,
				-0.27506816387176514,
				-0.2750681936740875
			],
			"type":"VEC3"
		},
		{
			"bufferView":5,
			"componentType":5126,
			"count":44391,
			"type":"VEC3"
		},
		{
			"bufferView":6,
			"componentType":5126,
			"count":44391,
			"type":"VEC2"
		},
		{
			"bufferView":7,
			"componentType":5123,
			"count":120219,
			"type":"SCALAR"
		},
		{
			"bufferView":8,
			"componentType":5126,
			"count":8872,
			"max":[
				0.1370072364807129,
				0.27142250537872314,
				0.27148663997650146
			],
			"min":[
				0.04647408053278923,
				-0.2714860737323761,
				-0.27148666977882385
			],
			"type":"VEC3"
		},
		{
			"bufferView":9,
			"componentType":5126,
			"count":8872,
			"type":"VEC3"
		},
		{
			"bufferView":10,
			"componentType":5126,
			"count":8872,
			"type":"VEC2"
		},
		{
			"bufferView":11,
			"componentType":5123,
			"count":21435,
			"type":"SCALAR"
		},
		{
			"bufferView":12,
			"componentType":5126,
			"count":260,
			"max":[
				0.07166518270969391,
				0.028670135885477066,
				0.028646644204854965
			],
			"min":[
				0.06959293782711029,
				-0.028623150661587715,
				-0.028646644204854965
			],
			"type":"VEC3"
		},
		{
			"bufferView":13,
			"componentType":5126,
			"count":260,
			"type":"VEC3"
		},
		{
			"bufferView":14,
			"componentType":5126,
			"count":260,
			"type":"VEC2"
		},
		{
			"bufferView":15,
			"componentType":5123,
			"count":774,
			"type":"SCALAR"
		},
		{
			"bufferView":16,
			"componentType":5126,
			"count":3943,
			"max":[
				0.09600618481636047,
				-0.1967872679233551,
				0.008222952485084534
			],
			"min":[
				0.07377550005912781,
				-0.2424626648426056,
				-0.008222967386245728
			],
			"type":"VEC3"
		},
		{
			"bufferView":17,
			"componentType":5126,
			"count":3943,
			"type":"VEC3"
		},
		{
			"bufferView":18,
			"componentType":5126,
			"count":3943,
			"type":"VEC2"
		},
		{
			"bufferView":19,
			"componentType":5123,
			"count":23232,
			"type":"SCALAR"
		},
		{
			"bufferView":20,
			"componentType":5126,
			"count":144,
			"max":[
				0.09291061758995056,
				-0.19699302315711975,
				0.007409193087369204
			],
			"min":[
				0.07377550005912781,
				-0.2424626648426056,
				-0.007409193087369204
			],
			"type":"VEC3"
		},
		{
			"bufferView":21,
			"componentType":5126,
			"count":144,
			"type":"VEC3"
		},
		{
			"bufferView":22,
			"componentType":5126,
			"count":144,
			"type":"VEC2"
		},
		{
			"bufferView":23,
			"componentType":5123,
			"count":636,
			"type":"SCALAR"
		},
		{
			"bufferView":24,
			"componentType":5126,
			"count":61437,
			"max":[
				0.13458162546157837,
				0.34241098165512085,
				0.3424110412597656
			],
			"min":[
				-0.13337372243404388,
				-0.34241101145744324,
				-0.342411071062088
			],
			"type":"VEC3"
		},
		{
			"bufferView":25,
			"componentType":5126,
			"count":61437,
			"type":"VEC3"
		},
		{
			"bufferView":26,
			"componentType":5126,
			"count":61437,
			"type":"VEC2"
		},
		{
			"bufferView":27,
			"componentType":5123,
			"count":161520,
			"type":"SCALAR"
		},
		{
			"bufferView":28,
			"componentType":5126,
			"count":47835,
			"max":[
				0.1265355348587036,
				0.34234514832496643,
				0.3423452377319336
			],
			"min":[
				-0.12653560936450958,
				-0.3423452079296112,
				-0.342345267534256
			],
			"type":"VEC3"
		},
		{
			"bufferView":29,
			"componentType":5126,
			"count":47835,
			"type":"VEC3"
		},
		{
			"bufferView":30,
			"componentType":5126,
			"count":47835,
			"type":"VEC2"
		},
		{
			"bufferView":31,
			"componentType":5123,
			"count":106200,
			"type":"SCALAR"
		},
		{
			"bufferView":32,
			"componentType":5126,
			"count":1474,
			"max":[
				0.13362199068069458,
				0.19397547841072083,
				0.2531740069389343
			],
			"min":[
				0.13178162276744843,
				0.1652558594942093,
				0.2352258712053299
			],
			"type":"VEC3"
		},
		{
			"bufferView":33,
			"componentType":5126,
			"count":1474,
			"type":"VEC3"
		},
		{
			"bufferView":34,
			"componentType":5126,
			"count":1474,
			"type":"VEC2"
		},
		{
			"bufferView":35,
			"componentType":5123,
			"count":2520,
			"type":"SCALAR"
		},
		{
			"bufferView":36,
			"componentType":5126,
			"count":10531,
			"max":[
				0.1336822509765625,
				0.24478091299533844,
				0.23770546913146973
			],
			"min":[
				0.1304733157157898,
				-0.22813700139522552,
				-0.26380467414855957
			],
			"type":"VEC3"
		},
		{
			"bufferView":37,
			"componentType":5126,
			"count":10531,
			"type":"VEC3"
		},
		{
			"bufferView":38,
			"componentType":5126,
			"count":10531,
			"type":"VEC2"
		},
		{
			"bufferView":39,
			"componentType":5123,
			"count":20316,
			"type":"SCALAR"
		}
	],
	"bufferViews":[
		{
			"buffer":0,
			"byteLength":455976,
			"byteOffset":0,
			"target":34962
		},
		{
			"buffer":0,
			"byteLength":455976,
			"byteOffset":455976,
			"target":34962
		},
		{
			"buffer":0,
			"byteLength":303984,
			"byteOffset":911952,
			"target":34962
		},
		{
			"buffer":0,
			"byteLength":220800,
			"byteOffset":1215936,
			"target":34963
		},
		{
			"buffer":0,
			"byteLength":532692,
			"byteOffset":1436736,
			"target":34962
		},
		{
			"buffer":0,
			"byteLength":532692,
			"byteOffset":1969428,
			"target":34962
		},
		{
			"buffer":0,
			"byteLength":355128,
			"byteOffset":2502120,
			"target":34962
		},
		{
			"buffer":0,
			"byteLength":240438,
			"byteOffset":2857248,
			"target":34963
		},
		{
			"buffer":0,
			"byteLength":106464,
			"byteOffset":3097688,
			"target":34962
		},
		{
			"buffer":0,
			"byteLength":106464,
			"byteOffset":3204152,
			"target":34962
		},
		{
			"buffer":0,
			"byteLength":70976,
			"byteOffset":3310616,
			"target":34962
		},
		{
			"buffer":0,
			"byteLength":42870,
			"byteOffset":3381592,
			"target":34963
		},
		{
			"buffer":0,
			"byteLength":3120,
			"byteOffset":3424464,
			"target":34962
		},
		{
			"buffer":0,
			"byteLength":3120,
			"byteOffset":3427584,
			"target":34962
		},
		{
			"buffer":0,
			"byteLength":2080,
			"byteOffset":3430704,
			"target":34962
		},
		{
			"buffer":0,
			"byteLength":1548,
			"byteOffset":3432784,
			"target":34963
		},
		{
			"buffer":0,
			"byteLength":47316,
			"byteOffset":3434332,
			"target":34962
		},
		{
			"buffer":0,
			"byteLength":47316,
			"byteOffset":3481648,
			"target":34962
		},
		{
			"buffer":0,
			"byteLength":31544,
			"byteOffset":3528964,
			"target":34962
		},
		{
			"buffer":0,
			"byteLength":46464,
			"byteOffset":3560508,
			"target":34963
		},
		{
			"buffer":0,
			"byteLength":1728,
			"byteOffset":3606972,
			"target":34962
		},
		{
			"buffer":0,
			"byteLength":1728,
			"byteOffset":3608700,
			"target":34962
		},
		{
			"buffer":0,
			"byteLength":1152,
			"byteOffset":3610428,
			"target":34962
		},
		{
			"buffer":0,
			"byteLength":1272,
			"byteOffset":3611580,
			"target":34963
		},
		{
			"buffer":0,
			"byteLength":737244,
			"byteOffset":3612852,
			"target":34962
		},
		{
			"buffer":0,
			"byteLength":737244,
			"byteOffset":4350096,
			"target":34962
		},
		{
			"buffer":0,
			"byteLength":491496,
			"byteOffset":5087340,
			"target":34962
		},
		{
			"buffer":0,
			"byteLength":323040,
			"byteOffset":5578836,
			"target":34963
		},
		{
			"buffer":0,
			"byteLength":574020,
			"byteOffset":5901876,
			"target":34962
		},
		{
			"buffer":0,
			"byteLength":574020,
			"byteOffset":6475896,
			"target":34962
		},
		{
			"buffer":0,
			"byteLength":382680,
			"byteOffset":7049916,
			"target":34962
		},
		{
			"buffer":0,
			"byteLength":212400,
			"byteOffset":7432596,
			"target":34963
		},
		{
			"buffer":0,
			"byteLength":17688,
			"byteOffset":7644996,
			"target":34962
		},
		{
			"buffer":0,
			"byteLength":17688,
			"byteOffset":7662684,
			"target":34962
		},
		{
			"buffer":0,
			"byteLength":11792,
			"byteOffset":7680372,
			"target":34962
		},
		{
			"buffer":0,
			"byteLength":5040,
			"byteOffset":7692164,
			"target":34963
		},
		{
			"buffer":0,
			"byteLength":126372,
			"byteOffset":7697204,
			"target":34962
		},
		{
			"buffer":0,
			"byteLength":126372,
			"byteOffset":7823576,
			"target":34962
		},
		{
			"buffer":0,
			"byteLength":84248,
			"byteOffset":7949948,
			"target":34962
		},
		{
			"buffer":0,
			"byteLength":40632,
			"byteOffset":8034196,
			"target":34963
		}
	],
	"samplers":[
		{
			"magFilter":9729,
			"minFilter":9987
		}
	],
	"buffers":[
		{
			"byteLength":8074828,
			"uri":"wheels.bin"
		}
	]
}
