{
	"asset":{
		"generator":"Khronos glTF Blender I/O v4.0.44",
		"version":"2.0"
	},
	"scene":0,
	"scenes":[
		{
			"name":"Scene",
			"nodes":[
				0,
				1,
				6,
				7
			]
		}
	],
	"nodes":[
		{
			"mesh":0,
			"name":"Text",
			"rotation":[
				0.6988383531570435,
				0,
				0,
				0.7152796387672424
			],
			"scale":[
				2.245741128921509,
				2.245741128921509,
				2.245741128921509
			],
			"translation":[
				-0.5259090065956116,
				0.41337016224861145,
				-0.048137933015823364
			]
		},
		{
			"name":"Human Brain",
			"scale":[
				0.3299541175365448,
				0.3299541175365448,
				0.3299541175365448
			],
			"translation":[
				-0.5428065061569214,
				0.2953602373600006,
				-0.010340660810470581
			]
		},
		{
			"mesh":1,
			"name":"Brain_Part_02.001",
			"rotation":[
				0.7117129564285278,
				0,
				0,
				0.7024704813957214
			],
			"scale":[
				0.9737856388092041,
				0.9737857580184937,
				0.9737857580184937
			],
			"translation":[
				-0.006964271422475576,
				-0.1984449028968811,
				-0.2676912844181061
			]
		},
		{
			"mesh":2,
			"name":"Brain_Part_04.001",
			"rotation":[
				0.7117129564285278,
				0,
				0,
				0.7024704813957214
			],
			"scale":[
				0.9737856388092041,
				0.9737857580184937,
				0.9737857580184937
			],
			"translation":[
				0.22091126441955566,
				0.1603071093559265,
				-0.038283027708530426
			]
		},
		{
			"mesh":3,
			"name":"Brain_Part_05.001",
			"rotation":[
				0.7117129564285278,
				0,
				0,
				0.7024704813957214
			],
			"scale":[
				0.9737856388092041,
				0.9737857580184937,
				0.9737857580184937
			]
		},
		{
			"mesh":4,
			"name":"Brain_Part_06.001",
			"rotation":[
				0.7117129564285278,
				0,
				0,
				0.7024704813957214
			],
			"scale":[
				0.9737856388092041,
				0.9737857580184937,
				0.9737857580184937
			],
			"translation":[
				-0.19661277532577515,
				0.1603071093559265,
				-0.038283031433820724
			]
		},
		{
			"children":[
				2,
				3,
				4,
				5
			],
			"name":"Human Brain.001",
			"scale":[
				2.181976795196533,
				2.181976795196533,
				2.181976795196533
			],
			"translation":[
				2.3759047985076904,
				-1.4200180768966675,
				0.08338102698326111
			]
		},
		{
			"name":"Empty (Move to change shape of lightning)",
			"translation":[
				0.000579833984375,
				2.99174165725708,
				-0.0006151199340820312
			]
		}
	],
	"materials":[
		{
			"doubleSided":true,
			"name":"BRAIN_PROCEDURAL_TEXTURE",
			"pbrMetallicRoughness":{
				"metallicFactor":0
			}
		}
	],
	"meshes":[
		{
			"name":"Text",
			"primitives":[
				{
					"attributes":{
						"POSITION":0,
						"NORMAL":1,
						"TEXCOORD_0":2
					},
					"indices":3
				}
			]
		},
		{
			"name":"Untitled.005",
			"primitives":[
				{
					"attributes":{
						"POSITION":4,
						"NORMAL":5,
						"TEXCOORD_0":6
					},
					"indices":7,
					"material":0
				}
			]
		},
		{
			"name":"Untitled.003",
			"primitives":[
				{
					"attributes":{
						"POSITION":8,
						"NORMAL":9,
						"TEXCOORD_0":10,
						"TEXCOORD_1":11
					},
					"indices":12,
					"material":0
				}
			]
		},
		{
			"name":"Untitled.004",
			"primitives":[
				{
					"attributes":{
						"POSITION":13,
						"NORMAL":14,
						"TEXCOORD_0":15
					},
					"indices":16,
					"material":0
				}
			]
		},
		{
			"name":"Untitled.002",
			"primitives":[
				{
					"attributes":{
						"POSITION":17,
						"NORMAL":18,
						"TEXCOORD_0":19,
						"TEXCOORD_1":20
					},
					"indices":21,
					"material":0
				}
			]
		}
	],
	"accessors":[
		{
			"bufferView":0,
			"componentType":5126,
			"count":350,
			"max":[
				2.618000030517578,
				0.08999999612569809,
				0
			],
			"min":[
				0.07600000500679016,
				-0.08999999612569809,
				-0.6820000410079956
			],
			"type":"VEC3"
		},
		{
			"bufferView":1,
			"componentType":5126,
			"count":350,
			"type":"VEC3"
		},
		{
			"bufferView":2,
			"componentType":5126,
			"count":350,
			"type":"VEC2"
		},
		{
			"bufferView":3,
			"componentType":5123,
			"count":972,
			"type":"SCALAR"
		},
		{
			"bufferView":4,
			"componentType":5126,
			"count":6905,
			"max":[
				0.4303946793079376,
				0.2161475419998169,
				0.14938056468963623
			],
			"min":[
				-0.4303993880748749,
				-0.24971187114715576,
				-0.22577202320098877
			],
			"type":"VEC3"
		},
		{
			"bufferView":5,
			"componentType":5126,
			"count":6905,
			"type":"VEC3"
		},
		{
			"bufferView":6,
			"componentType":5126,
			"count":6905,
			"type":"VEC2"
		},
		{
			"bufferView":7,
			"componentType":5123,
			"count":40734,
			"type":"SCALAR"
		},
		{
			"bufferView":8,
			"componentType":5126,
			"count":19991,
			"max":[
				0.3148539662361145,
				0.6792975068092346,
				0.37723761796951294
			],
			"min":[
				-0.2207905501127243,
				-0.6369249224662781,
				-0.46005791425704956
			],
			"type":"VEC3"
		},
		{
			"bufferView":9,
			"componentType":5126,
			"count":19991,
			"type":"VEC3"
		},
		{
			"bufferView":10,
			"componentType":5126,
			"count":19991,
			"type":"VEC2"
		},
		{
			"bufferView":11,
			"componentType":5126,
			"count":19991,
			"type":"VEC2"
		},
		{
			"bufferView":12,
			"componentType":5123,
			"count":114666,
			"type":"SCALAR"
		},
		{
			"bufferView":13,
			"componentType":5126,
			"count":1664,
			"max":[
				0.3363898992538452,
				0.29457029700279236,
				0.499733567237854
			],
			"min":[
				-0.3363853693008423,
				-0.2597934305667877,
				-0.316916823387146
			],
			"type":"VEC3"
		},
		{
			"bufferView":14,
			"componentType":5126,
			"count":1664,
			"type":"VEC3"
		},
		{
			"bufferView":15,
			"componentType":5126,
			"count":1664,
			"type":"VEC2"
		},
		{
			"bufferView":16,
			"componentType":5123,
			"count":9714,
			"type":"SCALAR"
		},
		{
			"bufferView":17,
			"componentType":5126,
			"count":19991,
			"max":[
				0.2207905501127243,
				0.6792975068092346,
				0.37723761796951294
			],
			"min":[
				-0.3148539662361145,
				-0.6369249224662781,
				-0.46005791425704956
			],
			"type":"VEC3"
		},
		{
			"bufferView":18,
			"componentType":5126,
			"count":19991,
			"type":"VEC3"
		},
		{
			"bufferView":19,
			"componentType":5126,
			"count":19991,
			"type":"VEC2"
		},
		{
			"bufferView":20,
			"componentType":5126,
			"count":19991,
			"type":"VEC2"
		},
		{
			"bufferView":21,
			"componentType":5123,
			"count":114666,
			"type":"SCALAR"
		}
	],
	"bufferViews":[
		{
			"buffer":0,
			"byteLength":4200,
			"byteOffset":0,
			"target":34962
		},
		{
			"buffer":0,
			"byteLength":4200,
			"byteOffset":4200,
			"target":34962
		},
		{
			"buffer":0,
			"byteLength":2800,
			"byteOffset":8400,
			"target":34962
		},
		{
			"buffer":0,
			"byteLength":1944,
			"byteOffset":11200,
			"target":34963
		},
		{
			"buffer":0,
			"byteLength":82860,
			"byteOffset":13144,
			"target":34962
		},
		{
			"buffer":0,
			"byteLength":82860,
			"byteOffset":96004,
			"target":34962
		},
		{
			"buffer":0,
			"byteLength":55240,
			"byteOffset":178864,
			"target":34962
		},
		{
			"buffer":0,
			"byteLength":81468,
			"byteOffset":234104,
			"target":34963
		},
		{
			"buffer":0,
			"byteLength":239892,
			"byteOffset":315572,
			"target":34962
		},
		{
			"buffer":0,
			"byteLength":239892,
			"byteOffset":555464,
			"target":34962
		},
		{
			"buffer":0,
			"byteLength":159928,
			"byteOffset":795356,
			"target":34962
		},
		{
			"buffer":0,
			"byteLength":159928,
			"byteOffset":955284,
			"target":34962
		},
		{
			"buffer":0,
			"byteLength":229332,
			"byteOffset":1115212,
			"target":34963
		},
		{
			"buffer":0,
			"byteLength":19968,
			"byteOffset":1344544,
			"target":34962
		},
		{
			"buffer":0,
			"byteLength":19968,
			"byteOffset":1364512,
			"target":34962
		},
		{
			"buffer":0,
			"byteLength":13312,
			"byteOffset":1384480,
			"target":34962
		},
		{
			"buffer":0,
			"byteLength":19428,
			"byteOffset":1397792,
			"target":34963
		},
		{
			"buffer":0,
			"byteLength":239892,
			"byteOffset":1417220,
			"target":34962
		},
		{
			"buffer":0,
			"byteLength":239892,
			"byteOffset":1657112,
			"target":34962
		},
		{
			"buffer":0,
			"byteLength":159928,
			"byteOffset":1897004,
			"target":34962
		},
		{
			"buffer":0,
			"byteLength":159928,
			"byteOffset":2056932,
			"target":34962
		},
		{
			"buffer":0,
			"byteLength":229332,
			"byteOffset":2216860,
			"target":34963
		}
	],
	"buffers":[
		{
			"byteLength":2446192,
			"uri":"brain.bin"
		}
	]
}
