{
	"asset":{
		"generator":"Khronos glTF Blender I/O v4.0.44",
		"version":"2.0"
	},
	"extensionsUsed":[
		"KHR_materials_specular",
		"KHR_materials_ior"
	],
	"scene":0,
	"scenes":[
		{
			"name":"Scene",
			"nodes":[
				4
			]
		}
	],
	"nodes":[
		{
			"mesh":0,
			"name":"Cube.616",
			"rotation":[
				0,
				0.7071068286895752,
				0,
				0.7071068286895752
			],
			"scale":[
				10.644232749938965,
				10.644232749938965,
				10.644232749938965
			],
			"translation":[
				0.7568380832672119,
				0.05249040573835373,
				-0.07626225799322128
			]
		},
		{
			"mesh":1,
			"name":"Cube.617",
			"scale":[
				10.644232749938965,
				10.644232749938965,
				10.644232749938965
			],
			"translation":[
				-0.17922118306159973,
				0.11364328116178513,
				0.13588033616542816
			]
		},
		{
			"mesh":2,
			"name":"Cube.618",
			"rotation":[
				-0.14490240812301636,
				-0.7201664447784424,
				0.024745455011725426,
				0.6780495643615723
			],
			"scale":[
				10.644232749938965,
				10.644233703613281,
				10.644232749938965
			],
			"translation":[
				0.11317556351423264,
				0.19723129272460938,
				-0.37662333250045776
			]
		},
		{
			"mesh":3,
			"name":"NurbsPath.255",
			"scale":[
				10.644232749938965,
				10.644232749938965,
				10.644232749938965
			],
			"translation":[
				2.0839855670928955,
				0.052523426711559296,
				-0.07859489321708679
			]
		},
		{
			"children":[
				0,
				1,
				2,
				3
			],
			"name":"SSD Flash Drive",
			"scale":[
				-1.0519020557403564,
				-1.0519020557403564,
				-1.0519020557403564
			],
			"translation":[
				-0.04357337951660156,
				0,
				-0.0008435249328613281
			]
		}
	],
	"materials":[
		{
			"doubleSided":true,
			"extensions":{
				"KHR_materials_specular":{
					"specularFactor":0.7460317611694336
				},
				"KHR_materials_ior":{
					"ior":1.4500000476837158
				}
			},
			"name":"black",
			"pbrMetallicRoughness":{
				"baseColorFactor":[
					0,
					0,
					0,
					1
				],
				"metallicFactor":0
			}
		},
		{
			"doubleSided":true,
			"name":"metall",
			"pbrMetallicRoughness":{}
		},
		{
			"doubleSided":true,
			"name":"dark grey",
			"pbrMetallicRoughness":{
				"baseColorFactor":[
					0.3107982575893402,
					0.3107982575893402,
					0.3107982575893402,
					1
				],
				"metallicFactor":0,
				"roughnessFactor":0.5
			}
		},
		{
			"doubleSided":true,
			"name":"Blue",
			"pbrMetallicRoughness":{
				"baseColorFactor":[
					0,
					0.1866132766008377,
					0.8000000715255737,
					1
				],
				"metallicFactor":0,
				"roughnessFactor":0.5
			}
		}
	],
	"meshes":[
		{
			"name":"Cube.276",
			"primitives":[
				{
					"attributes":{
						"POSITION":0,
						"NORMAL":1,
						"TEXCOORD_0":2
					},
					"indices":3,
					"material":0
				},
				{
					"attributes":{
						"POSITION":4,
						"NORMAL":5,
						"TEXCOORD_0":6
					},
					"indices":7,
					"material":1
				}
			]
		},
		{
			"name":"Cube.309",
			"primitives":[
				{
					"attributes":{
						"POSITION":8,
						"NORMAL":9,
						"TEXCOORD_0":10
					},
					"indices":11,
					"material":1
				},
				{
					"attributes":{
						"POSITION":12,
						"NORMAL":13,
						"TEXCOORD_0":14
					},
					"indices":15,
					"material":2
				},
				{
					"attributes":{
						"POSITION":16,
						"NORMAL":17,
						"TEXCOORD_0":18
					},
					"indices":19,
					"material":0
				}
			]
		},
		{
			"name":"Cube.277",
			"primitives":[
				{
					"attributes":{
						"POSITION":20,
						"NORMAL":21,
						"TEXCOORD_0":22
					},
					"indices":23,
					"material":0
				},
				{
					"attributes":{
						"POSITION":24,
						"NORMAL":25,
						"TEXCOORD_0":26
					},
					"indices":27,
					"material":1
				},
				{
					"attributes":{
						"POSITION":28,
						"NORMAL":29,
						"TEXCOORD_0":30
					},
					"indices":31,
					"material":3
				}
			]
		},
		{
			"name":"NurbsPath.002",
			"primitives":[
				{
					"attributes":{
						"POSITION":32,
						"NORMAL":33,
						"TEXCOORD_0":34
					},
					"indices":35,
					"material":0
				}
			]
		}
	],
	"accessors":[
		{
			"bufferView":0,
			"componentType":5126,
			"count":917,
			"max":[
				0.00800000037997961,
				0.0024999999441206455,
				0.01545379776507616
			],
			"min":[
				-0.00800000037997961,
				-0.0024999999441206455,
				-0.01249999925494194
			],
			"type":"VEC3"
		},
		{
			"bufferView":1,
			"componentType":5126,
			"count":917,
			"type":"VEC3"
		},
		{
			"bufferView":2,
			"componentType":5126,
			"count":917,
			"type":"VEC2"
		},
		{
			"bufferView":3,
			"componentType":5123,
			"count":2904,
			"type":"SCALAR"
		},
		{
			"bufferView":4,
			"componentType":5126,
			"count":88,
			"max":[
				0.005237026605755091,
				0.0004762489697895944,
				-0.012348843738436699
			],
			"min":[
				-0.004762973170727491,
				-0.0005237510777078569,
				-0.018348844721913338
			],
			"type":"VEC3"
		},
		{
			"bufferView":5,
			"componentType":5126,
			"count":88,
			"type":"VEC3"
		},
		{
			"bufferView":6,
			"componentType":5126,
			"count":88,
			"type":"VEC2"
		},
		{
			"bufferView":7,
			"componentType":5123,
			"count":180,
			"type":"SCALAR"
		},
		{
			"bufferView":8,
			"componentType":5126,
			"count":482,
			"max":[
				0.07397913932800293,
				-0.004007863812148571,
				-0.01307656243443489
			],
			"min":[
				0.0639791488647461,
				-0.0075233145616948605,
				-0.02645985595881939
			],
			"type":"VEC3"
		},
		{
			"bufferView":9,
			"componentType":5126,
			"count":482,
			"type":"VEC3"
		},
		{
			"bufferView":10,
			"componentType":5126,
			"count":482,
			"type":"VEC2"
		},
		{
			"bufferView":11,
			"componentType":5123,
			"count":960,
			"type":"SCALAR"
		},
		{
			"bufferView":12,
			"componentType":5126,
			"count":64,
			"max":[
				0.07265615463256836,
				0.0019687674939632416,
				-0.01557911466807127
			],
			"min":[
				0.06444214284420013,
				-0.0050242929719388485,
				-0.04310007020831108
			],
			"type":"VEC3"
		},
		{
			"bufferView":13,
			"componentType":5126,
			"count":64,
			"type":"VEC3"
		},
		{
			"bufferView":14,
			"componentType":5126,
			"count":64,
			"type":"VEC2"
		},
		{
			"bufferView":15,
			"componentType":5123,
			"count":114,
			"type":"SCALAR"
		},
		{
			"bufferView":16,
			"componentType":5126,
			"count":6997,
			"max":[
				0.07433739304542542,
				0.002464914694428444,
				0.02723436988890171
			],
			"min":[
				-0.040662605315446854,
				-0.01053509023040533,
				-0.052765630185604095
			],
			"type":"VEC3"
		},
		{
			"bufferView":17,
			"componentType":5126,
			"count":6997,
			"type":"VEC3"
		},
		{
			"bufferView":18,
			"componentType":5126,
			"count":6997,
			"type":"VEC2"
		},
		{
			"bufferView":19,
			"componentType":5123,
			"count":12750,
			"type":"SCALAR"
		},
		{
			"bufferView":20,
			"componentType":5126,
			"count":2365,
			"max":[
				0.019999999552965164,
				0.0035000001080334187,
				0.008500000461935997
			],
			"min":[
				-0.019999999552965164,
				-0.0035000001080334187,
				-0.008500000461935997
			],
			"type":"VEC3"
		},
		{
			"bufferView":21,
			"componentType":5126,
			"count":2365,
			"type":"VEC3"
		},
		{
			"bufferView":22,
			"componentType":5126,
			"count":2365,
			"type":"VEC2"
		},
		{
			"bufferView":23,
			"componentType":5123,
			"count":7527,
			"type":"SCALAR"
		},
		{
			"bufferView":24,
			"componentType":5126,
			"count":134,
			"max":[
				-0.019878435879945755,
				0.0020002226810902357,
				0.0059389593079686165
			],
			"min":[
				-0.03187843784689903,
				-0.0019997775088995695,
				-0.005061040632426739
			],
			"type":"VEC3"
		},
		{
			"bufferView":25,
			"componentType":5126,
			"count":134,
			"type":"VEC3"
		},
		{
			"bufferView":26,
			"componentType":5126,
			"count":134,
			"type":"VEC2"
		},
		{
			"bufferView":27,
			"componentType":5123,
			"count":282,
			"type":"SCALAR"
		},
		{
			"bufferView":28,
			"componentType":5126,
			"count":18,
			"max":[
				-0.020238298922777176,
				0.0020002226810902357,
				0.0059389593079686165
			],
			"min":[
				-0.03187843784689903,
				-4.995865674572997e-05,
				-0.005061040632426739
			],
			"type":"VEC3"
		},
		{
			"bufferView":29,
			"componentType":5126,
			"count":18,
			"type":"VEC3"
		},
		{
			"bufferView":30,
			"componentType":5126,
			"count":18,
			"type":"VEC2"
		},
		{
			"bufferView":31,
			"componentType":5123,
			"count":30,
			"type":"SCALAR"
		},
		{
			"bufferView":32,
			"componentType":5126,
			"count":1872,
			"max":[
				-0.03876445069909096,
				0.023114746436476707,
				0.10294266045093536
			],
			"min":[
				-0.19462604820728302,
				-0.0051654851995408535,
				-0.009333446621894836
			],
			"type":"VEC3"
		},
		{
			"bufferView":33,
			"componentType":5126,
			"count":1872,
			"type":"VEC3"
		},
		{
			"bufferView":34,
			"componentType":5126,
			"count":1872,
			"type":"VEC2"
		},
		{
			"bufferView":35,
			"componentType":5123,
			"count":10296,
			"type":"SCALAR"
		}
	],
	"bufferViews":[
		{
			"buffer":0,
			"byteLength":11004,
			"byteOffset":0,
			"target":34962
		},
		{
			"buffer":0,
			"byteLength":11004,
			"byteOffset":11004,
			"target":34962
		},
		{
			"buffer":0,
			"byteLength":7336,
			"byteOffset":22008,
			"target":34962
		},
		{
			"buffer":0,
			"byteLength":5808,
			"byteOffset":29344,
			"target":34963
		},
		{
			"buffer":0,
			"byteLength":1056,
			"byteOffset":35152,
			"target":34962
		},
		{
			"buffer":0,
			"byteLength":1056,
			"byteOffset":36208,
			"target":34962
		},
		{
			"buffer":0,
			"byteLength":704,
			"byteOffset":37264,
			"target":34962
		},
		{
			"buffer":0,
			"byteLength":360,
			"byteOffset":37968,
			"target":34963
		},
		{
			"buffer":0,
			"byteLength":5784,
			"byteOffset":38328,
			"target":34962
		},
		{
			"buffer":0,
			"byteLength":5784,
			"byteOffset":44112,
			"target":34962
		},
		{
			"buffer":0,
			"byteLength":3856,
			"byteOffset":49896,
			"target":34962
		},
		{
			"buffer":0,
			"byteLength":1920,
			"byteOffset":53752,
			"target":34963
		},
		{
			"buffer":0,
			"byteLength":768,
			"byteOffset":55672,
			"target":34962
		},
		{
			"buffer":0,
			"byteLength":768,
			"byteOffset":56440,
			"target":34962
		},
		{
			"buffer":0,
			"byteLength":512,
			"byteOffset":57208,
			"target":34962
		},
		{
			"buffer":0,
			"byteLength":228,
			"byteOffset":57720,
			"target":34963
		},
		{
			"buffer":0,
			"byteLength":83964,
			"byteOffset":57948,
			"target":34962
		},
		{
			"buffer":0,
			"byteLength":83964,
			"byteOffset":141912,
			"target":34962
		},
		{
			"buffer":0,
			"byteLength":55976,
			"byteOffset":225876,
			"target":34962
		},
		{
			"buffer":0,
			"byteLength":25500,
			"byteOffset":281852,
			"target":34963
		},
		{
			"buffer":0,
			"byteLength":28380,
			"byteOffset":307352,
			"target":34962
		},
		{
			"buffer":0,
			"byteLength":28380,
			"byteOffset":335732,
			"target":34962
		},
		{
			"buffer":0,
			"byteLength":18920,
			"byteOffset":364112,
			"target":34962
		},
		{
			"buffer":0,
			"byteLength":15054,
			"byteOffset":383032,
			"target":34963
		},
		{
			"buffer":0,
			"byteLength":1608,
			"byteOffset":398088,
			"target":34962
		},
		{
			"buffer":0,
			"byteLength":1608,
			"byteOffset":399696,
			"target":34962
		},
		{
			"buffer":0,
			"byteLength":1072,
			"byteOffset":401304,
			"target":34962
		},
		{
			"buffer":0,
			"byteLength":564,
			"byteOffset":402376,
			"target":34963
		},
		{
			"buffer":0,
			"byteLength":216,
			"byteOffset":402940,
			"target":34962
		},
		{
			"buffer":0,
			"byteLength":216,
			"byteOffset":403156,
			"target":34962
		},
		{
			"buffer":0,
			"byteLength":144,
			"byteOffset":403372,
			"target":34962
		},
		{
			"buffer":0,
			"byteLength":60,
			"byteOffset":403516,
			"target":34963
		},
		{
			"buffer":0,
			"byteLength":22464,
			"byteOffset":403576,
			"target":34962
		},
		{
			"buffer":0,
			"byteLength":22464,
			"byteOffset":426040,
			"target":34962
		},
		{
			"buffer":0,
			"byteLength":14976,
			"byteOffset":448504,
			"target":34962
		},
		{
			"buffer":0,
			"byteLength":20592,
			"byteOffset":463480,
			"target":34963
		}
	],
	"buffers":[
		{
			"byteLength":484072,
			"uri":"realssd.bin"
		}
	]
}
